<?xml version="1.0" standalone="no"?>
<!DOCTYPE svg PUBLIC "-//W3C//DTD SVG 20010904//EN"
 "http://www.w3.org/TR/2001/REC-SVG-20010904/DTD/svg10.dtd">
<svg version="1.0" xmlns="http://www.w3.org/2000/svg"
 width="612.000000pt" height="612.000000pt" viewBox="0 0 612.000000 612.000000"
 preserveAspectRatio="xMidYMid meet">

<g transform="translate(0.000000,612.000000) scale(0.100000,-0.100000)"
fill="#000000" stroke="none">
<path d="M3515 4782 c-123 -78 -304 -405 -505 -917 l-47 -120 -58 -7 c-147
-19 -280 -70 -383 -148 -31 -24 -63 -40 -80 -40 -74 -1 -259 -58 -328 -102
-56 -35 -34 -40 -224 47 -394 179 -710 275 -908 275 -98 0 -133 -15 -176 -73
-31 -42 -35 -169 -7 -277 105 -418 505 -886 870 -1020 87 -32 85 -23 45 -156
l-27 -91 -111 -6 c-177 -8 -297 -64 -370 -170 -42 -61 -59 -107 -77 -205 l-13
-72 -297 0 c-291 0 -298 0 -304 -20 -15 -48 -3 -50 310 -50 l292 0 7 -40 c17
-110 99 -178 214 -180 30 0 53 -8 76 -25 18 -13 49 -31 69 -40 38 -16 138 -19
172 -6 12 5 36 3 59 -5 55 -20 143 -17 192 5 23 10 57 35 77 55 23 23 46 36
62 36 14 0 47 11 73 24 51 26 85 74 96 139 l7 37 198 0 197 0 29 -30 c36 -38
103 -60 179 -60 78 0 118 12 190 55 l58 35 1258 0 c1355 0 1292 -2 1275 50 -6
20 -13 20 -284 20 l-278 0 -36 112 c-89 284 -96 330 -71 465 22 120 25 301 5
358 -33 95 -102 158 -191 173 -40 7 -42 8 -63 73 -43 126 -112 183 -222 183
-41 0 -77 -7 -113 -23 -57 -26 -81 -21 -43 8 18 14 22 24 18 42 -11 42 -136
105 -245 124 -23 4 -42 8 -42 10 0 2 7 63 16 137 18 156 21 454 4 583 -48 381
-185 694 -357 812 -66 45 -140 55 -188 25z m148 -83 c153 -101 290 -429 328
-786 15 -145 7 -472 -16 -621 -19 -127 -15 -142 39 -142 37 0 130 -23 184 -45
l37 -16 -24 -18 c-14 -11 -42 -21 -63 -24 -49 -7 -81 -28 -117 -78 -25 -34
-37 -68 -56 -165 -4 -17 -14 -22 -54 -27 -68 -8 -106 -30 -139 -79 -23 -35
-28 -54 -31 -126 -5 -128 24 -248 110 -450 68 -159 106 -346 83 -406 -5 -14
-51 -16 -405 -16 -219 0 -399 2 -399 4 0 2 15 29 34 60 18 30 42 84 52 120 18
62 20 64 79 97 78 43 211 177 247 249 55 113 71 235 48 380 -30 186 -132 234
-206 96 -54 -100 -82 -134 -136 -160 -66 -32 -178 -47 -261 -35 -34 5 -83 9
-109 9 -45 0 -49 2 -67 39 l-20 38 34 33 c18 18 44 56 56 84 42 97 35 259 -12
302 -11 9 -19 21 -19 26 0 20 126 -34 216 -93 33 -21 64 -39 69 -39 5 0 -11
20 -35 45 l-44 45 46 0 c58 0 102 34 119 90 11 35 9 44 -12 86 -28 55 -77 80
-134 70 -69 -13 -119 -97 -95 -161 9 -24 8 -26 -7 -20 -97 43 -161 57 -233 52
-175 -13 -308 -89 -385 -222 -10 -16 -12 -16 -45 4 -118 71 -247 -61 -172
-177 31 -48 109 -66 163 -38 26 13 27 13 34 -18 7 -27 9 -24 16 34 4 36 12 76
18 90 10 25 10 25 10 -6 2 -86 157 -199 286 -208 55 -4 58 -6 81 -46 l24 -42
-29 -41 c-44 -63 -120 -149 -154 -174 -40 -30 -76 -29 -140 3 -68 35 -123 37
-148 5 -25 -31 -24 -47 7 -109 47 -95 186 -224 282 -262 17 -7 32 -13 32 -14
0 0 -9 -30 -20 -64 -11 -35 -20 -79 -20 -98 l0 -34 -189 0 -188 0 -18 68 c-26
96 -50 139 -115 203 -59 58 -181 124 -272 149 -28 7 -48 18 -48 26 0 21 61
208 71 219 5 5 9 19 9 32 0 26 -9 30 -105 58 -73 21 -177 72 -253 124 -319
218 -612 672 -630 973 l-5 87 32 32 32 32 107 -6 c144 -8 380 -72 597 -162 44
-19 112 -47 150 -63 39 -16 125 -55 192 -87 l122 -57 41 35 c52 44 155 83 290
109 87 16 112 25 145 52 92 75 212 121 359 139 83 10 100 15 107 32 5 11 34
85 65 165 159 407 314 708 419 818 62 63 89 67 158 21z m-505 -1501 c17 -17
15 -55 -4 -62 -30 -12 -54 3 -54 34 0 37 33 53 58 28z m1366 -212 c45 -19 80
-68 101 -141 25 -88 26 -89 95 -103 34 -6 76 -22 92 -34 69 -48 92 -181 63
-358 -32 -194 -31 -209 14 -382 22 -86 49 -180 60 -208 14 -37 16 -52 8 -56
-7 -2 -220 -3 -475 -2 l-462 3 -4 95 c-5 116 -20 172 -95 361 -73 180 -101
290 -101 386 0 123 28 154 145 163 l70 5 12 77 c13 88 35 140 71 168 32 25 67
25 137 -1 42 -16 59 -18 69 -9 19 15 116 49 144 50 12 0 38 -6 56 -14z m-2214
-125 c7 -15 5 -24 -8 -41 -16 -19 -22 -21 -40 -11 -21 11 -30 50 -15 64 13 14
53 6 63 -12z m889 -511 c9 0 25 -6 35 -13 17 -13 17 -16 -12 -68 -35 -62 -52
-142 -52 -244 0 -123 -44 -229 -131 -316 -107 -107 -258 -131 -346 -54 -39 33
-37 103 5 209 18 43 39 109 48 147 17 74 95 208 133 228 27 15 61 14 56 -1 -2
-7 -14 -78 -25 -158 -26 -180 -33 -207 -65 -250 -30 -41 -33 -76 -6 -85 61
-19 112 85 140 285 32 233 38 250 88 294 24 20 80 36 101 30 8 -2 21 -4 31 -4z
m-1424 -296 c101 -27 205 -83 265 -144 49 -48 59 -65 80 -135 29 -98 32 -189
7 -227 -20 -29 -63 -48 -108 -48 -20 0 -41 -13 -72 -45 -24 -24 -56 -49 -71
-55 -39 -15 -98 -12 -151 6 -36 12 -54 13 -77 5 -38 -13 -108 -14 -141 -2 -14
5 -41 24 -62 42 -33 29 -43 32 -103 34 -81 1 -106 14 -132 65 -38 74 -21 250
35 359 39 78 128 139 235 161 61 12 221 4 295 -16z"/>
<path d="M3543 4568 c-58 -62 -113 -197 -178 -443 -38 -146 -114 -516 -108
-531 10 -26 37 -24 80 6 24 17 56 35 72 40 l29 8 -16 -40 c-15 -38 -15 -41 3
-54 10 -8 30 -14 44 -14 25 0 25 0 -8 -28 -50 -41 -39 -65 66 -151 108 -88
178 -124 252 -129 47 -3 61 1 84 20 25 20 30 36 49 143 27 157 29 449 4 607
-41 263 -128 485 -221 567 -51 44 -109 44 -152 -1z m109 -58 c28 -21 86 -126
117 -210 31 -86 59 -203 77 -324 29 -196 6 -628 -35 -669 -28 -28 -151 31
-254 123 l-42 38 35 6 c19 4 48 5 64 4 17 -2 32 3 39 13 17 26 -14 63 -78 94
-50 25 -64 45 -31 45 21 0 38 27 32 48 -12 36 -129 56 -192 32 -15 -6 -29 -8
-32 -6 -14 14 91 456 145 611 51 146 89 215 118 215 7 0 24 -9 37 -20z"/>
<path d="M999 3561 c-24 -25 -29 -38 -29 -78 0 -68 21 -137 71 -236 121 -239
352 -488 622 -669 156 -105 192 -113 251 -52 50 51 67 117 73 279 5 123 4 142
-11 154 -13 11 -24 12 -51 4 -40 -13 -51 -6 -29 18 25 28 14 62 -23 74 -18 5
-33 12 -33 16 0 8 66 36 110 47 28 6 36 14 38 34 3 24 -8 33 -120 97 -190 111
-523 274 -630 309 -130 43 -198 44 -239 3z m215 -72 c108 -36 306 -130 498
-236 124 -68 158 -93 128 -93 -21 0 -94 -77 -112 -117 -28 -63 -2 -99 48 -67
33 22 37 15 19 -30 -21 -49 -16 -125 8 -140 15 -9 23 -4 53 32 49 58 64 55 64
-10 -1 -131 -34 -252 -72 -264 -12 -4 -45 11 -95 42 -260 162 -511 418 -631
643 -67 125 -99 240 -75 264 14 15 80 6 167 -24z"/>
</g>
</svg>
